<?xml version="1.0" encoding="UTF-8"?>
<svg id="_1" data-name=" 1" xmlns="http://www.w3.org/2000/svg" viewBox="0 0 128 128">
  <polygon points="64 0 64 64 81.29 46.71 64 0" fill="#5f7b87"/>
  <polygon points="64 64 46.71 46.71 64 0 64 64" fill="#f4f4f4"/>
  <polygon points="81.29 81.29 64 64 128 64 81.29 81.29" fill="#293235"/>
  <polygon points="81.29 46.71 64 64 128 64 81.29 46.71" fill="#71919b"/>
  <polygon points="81.29 81.29 64 128 64 64 81.29 81.29" fill="#1c1e1e"/>
  <polygon points="46.71 81.29 64 64 64 128 46.71 81.29" fill="#648491"/>
  <polygon points="0 64 46.71 81.29 64 64 0 64" fill="#5f7b87"/>
  <polygon points="46.71 46.71 0 64 64 64 46.71 46.71" fill="#bfd8e2"/>
</svg>